<svg xmlns="http://www.w3.org/2000/svg" xmlns:xlink="http://www.w3.org/1999/xlink" width="662" height="102" viewBox="0 0 662 102">
    <defs>
        <filter id="12edtk0bta" width="106.6%" height="156.8%" x="-3.3%" y="-28.4%" filterUnits="objectBoundingBox">
            <feOffset in="SourceAlpha" result="shadowOffsetOuter1"/>
            <feGaussianBlur in="shadowOffsetOuter1" result="shadowBlurOuter1" stdDeviation="4"/>
            <feColorMatrix in="shadowBlurOuter1" result="shadowMatrixOuter1" values="0 0 0 0 0 0 0 0 0 0 0 0 0 0 0 0 0 0 0.299773957 0"/>
            <feOffset in="SourceAlpha" result="shadowOffsetOuter2"/>
            <feGaussianBlur in="shadowOffsetOuter2" result="shadowBlurOuter2" stdDeviation="7"/>
            <feColorMatrix in="shadowBlurOuter2" result="shadowMatrixOuter2" values="0 0 0 0 0.30370141 0 0 0 0 0.830000472 0 0 0 0 1 0 0 0 1 0"/>
            <feMerge>
                <feMergeNode in="shadowMatrixOuter1"/>
                <feMergeNode in="shadowMatrixOuter2"/>
            </feMerge>
        </filter>
        <path id="lwfa6knhdb" d="M80.25 947v-52.536c2.66-5.905 4.91-11.708 6.75-17.41L74.42 874c-3.477 12.625-8.284 23.62-14.42 32.987.818 4.887 1.84 10.182 3.068 15.883 1.637-2.443 2.966-4.276 3.989-5.498.409-.61.716-1.12.92-1.527V947H80.25zm12.848 0c1.624 0 3.96-.102 7.005-.305h3.96c6.904-.407 10.255-4.17 10.052-11.288v-36.61H101.93v33.559c.203 2.644-1.015 3.864-3.655 3.66h-6.397c1.625-4.27 4.163-11.287 7.615-21.05.813-2.237 1.422-3.864 1.828-4.881l-10.052-3.051c2.843-4.068 5.077-8.034 6.701-11.898h22.54l-3.35 9.152 11.575 2.44L133 894.22v-10.373h-30.155c1.015-2.237 1.827-4.576 2.437-7.016L92.793 875C89.95 885.373 85.686 894.22 80 901.542c1.015.814 2.437 2.034 4.264 3.661 2.031 1.83 3.656 3.255 4.874 4.272-2.64 7.525-5.584 15.254-8.833 23.186l10.965 4.271.914 4.576c.406 2.645.71 4.475.914 5.492zm30.084-10L135 933.364l-3.333-10L126.212 907 115 910.03c1.01 3.233 2.525 8.384 4.545 15.455 1.617 5.252 2.829 9.09 3.637 11.515zm56.639-3l8.559-7.04c-2.446-2.654-4.89-5.205-7.336-7.654H211v-42.55h-37.293v26.02c-2.853-2.45-5.4-4.49-7.641-6.123l-2.752 2.755v-5.816h7.948V883.49h-7.948V874H152.31v9.49h-9.782v10.102h7.642c-2.241 4.286-5.298 8.265-9.17 11.939.204 1.632.611 4.285 1.223 7.959.407 2.857.713 4.898.917 6.122 3.668-3.673 6.725-7.653 9.17-11.939v12.858h11.004v-13.776l4.586 4.592 5.807-6.429v14.388h3.057l-5.808 4.286c1.427 1.632 3.465 3.98 6.114 7.04 1.223 1.633 2.14 2.756 2.751 3.368zM199 889h-14v-3h14v3zm0 11h-14v-3h14v3zm0 11h-14v-3h14v3zm-40.992 23.715c-.204 7.721 3.375 11.48 10.74 11.277h17.49c6.545 0 10.636-2.438 12.272-7.315.614-1.422 1.228-3.454 1.841-6.095 1.841 3.25 3.478 6.4 4.91 9.448L216 937.458c-.41-.61-1.023-1.625-1.841-3.048-3.068-5.892-5.625-10.362-7.67-13.41l-10.126 4.572c.204.203.409.61.613 1.219 1.023 1.219 1.637 2.235 1.841 3.048-1.023-.203-2.864-.813-5.523-1.829-1.84-.61-3.17-1.016-3.989-1.22 0 .407-.102 1.017-.306 1.83-.41 2.031-.614 3.352-.614 3.962-.41 2.641-2.148 3.86-5.216 3.657h-8.592c-3.068.203-4.602-1.422-4.602-4.876v-8.23h-11.967v11.582zm-6.99 9.285c2.024-4.2 4.351-10.1 6.982-17.7l-10.929-3.3c-1.821 6.2-3.845 11.8-6.071 16.8l10.018 4.2zM290 889v-11h-38v11h38zm-36.814 59c9.717-6.89 14.373-16.617 13.968-29.18v-2.432c.202-2.23.303-4.053.303-5.472h4.252v26.141c0 5.877 3.036 8.815 9.109 8.815h4.25c5.466 0 8.604-2.33 9.414-6.99.607-3.04 1.113-7.296 1.518-12.767-2.632-1.014-4.555-1.824-5.77-2.432l-2.732-.912c-.405 5.674-.709 9.22-.911 10.639-.202 1.62-.81 2.431-1.822 2.431-.81 0-1.214-.81-1.214-2.431v-22.494h10.627V899.67h-44.635v11.246h6.376c0 1.014-.101 2.533-.304 4.56v3.343c0 7.498-2.429 13.172-7.287 17.022-.202-1.823-.304-4.56-.304-8.207-2.024.203-4.15.507-6.376.912v-13.982h5.769V903.62h-5.77v-13.374h6.377V879h-25.506v11.247h7.288v13.374h-6.68v10.943h6.68v15.806c-2.834.608-5.77 1.013-8.806 1.216l2.43 11.855c9.108-1.824 16.092-3.141 20.95-3.952 2.025 1.824 4.96 4.66 8.806 8.511zm62.735-2v-4.576h8.865v4.27h11.921v-44.236c3.261 1.83 6.42 3.559 9.476 5.186 1.63-3.05 3.057-6.203 4.28-9.458h10.699c0 3.458-.102 9.458-.306 18V928c0 4.678-2.242 6.814-6.725 6.407-4.89 0-8.559-.102-11.004-.305.815 3.05 1.426 5.796 1.834 8.237.203 1.627.407 2.847.611 3.661 5.706 0 10.393-.102 14.061-.305 8.967-.203 13.45-5.187 13.45-14.95.204-7.728.51-22.779.917-45.152h-18.646c.407-1.017.917-2.542 1.528-4.576.611-1.83 1.019-3.254 1.223-4.271L345.878 874c-2.038 7.525-5.095 15.661-9.17 24.407v-12.814h-11.005c.815-2.644 1.427-5.085 1.834-7.322.204-1.017.408-1.83.611-2.44l-13.45-1.526c-.407 3.458-1.12 7.22-2.139 11.288H304V946h11.921zM325 908h-9v-11h9v11zm24.652 20L360 921.183c-.812-1.033-1.928-2.582-3.348-4.648-3.45-4.751-6.087-8.263-7.913-10.535L339 912.197c2.84 3.925 6.391 9.193 10.652 15.803zM325 931h-9v-11h9v11zm111.174 17v-17.715l2.134 8.857h6.097c7.925-.203 11.786-4.887 11.583-14.05.203-6.312-2.235-11.912-7.316-16.8l5.792-18.936V878.36H425.2v4.887l-5.791-3.055c-2.033 2.648-3.963 5.397-5.792 8.247v-5.803h-8.84V875h-10.974v7.636h-9.45v9.163h9.45v4.887h-11.584v9.469h14.023c-4.471 3.665-9.552 6.821-15.242 9.468.813 3.462 1.524 7.23 2.134 11.302.406-.204 1.016-.611 1.829-1.222l1.829-.916v22.602h10.974v-3.054h12.803v3.054h10.669V909.82H406.91c1.422-1.222 2.743-2.443 3.962-3.665h12.498v-9.469h-4.267c2.032-2.443 3.658-4.48 4.877-6.109.61-.61 1.016-1.12 1.22-1.527V948h10.973zm7.805-24.622c.197 3.274-.985 4.809-3.546 4.604H436V889h6.206l-4.433 19.644c4.137 5.32 6.206 10.232 6.206 14.734zM405.8 896H404v-5h6c-.682.913-1.08 1.456-1.192 1.628l-.002.003-.134.156c-1.163 1.35-2.078 2.376-2.742 3.077l-.13.136zm4.2 27h-13v-4h13v4zm0 12h-13v-4h13v4zm73.443 13v-39.917c3.437-4.503 6.368-9.212 8.795-14.124H535v-11.361h-37.91c1.011-2.457 1.92-4.913 2.73-7.37L486.475 874c-.808 3.07-1.82 5.936-3.032 8.598h-19.41v11.36h14.254c-4.65 7.78-10.413 14.637-17.287 20.573.607 1.842 1.617 4.81 3.033 8.905.606 1.842 1.01 3.173 1.213 3.991.809-.818 1.92-1.842 3.336-3.07 1.415-1.228 2.426-2.15 3.033-2.764V948h11.828zM535 944v-10.33h-18.45v-14.278h15.425v-10.936H516.55V896h-12.4v12.456h-15.73v10.936h15.73v14.279H486V944h49zm17.923-49L564 888.824c-1.026-1.442-2.462-3.603-4.308-6.486-2.256-3.706-4.102-6.485-5.538-8.338L544 879.25c3.487 5.765 6.462 11.015 8.923 15.75zm50.402 39l8.91-9.23c-2.048-1.642-4.916-4.103-8.602-7.385-1.844-1.641-3.278-2.872-4.302-3.693 3.892-5.128 6.76-11.282 8.603-18.461H615v-11.077h-18.741c-.205-1.641-.717-4-1.536-7.077-.41-1.23-.717-2.256-.922-3.077l-13.518 1.23c.205.821.512 1.95.922 3.385.82 2.462 1.331 4.308 1.536 5.539h-18.127v11.077h9.832l-6.76 6.154c2.049 1.846 4.814 4.41 8.296 7.692 2.663 2.256 4.608 4 5.837 5.23-4.506 3.283-10.446 6.155-17.819 8.616 2.663 3.692 4.916 7.282 6.759 10.77 8.398-3.488 15.157-7.18 20.277-11.078 3.892 3.282 7.988 7.077 12.29 11.385zM589.9 907c-4-3.667-8.3-7.333-12.9-11h18c-1 3.87-2.7 7.537-5.1 11zm-44.308 41c1.837-2.435 5-5.681 9.49-9.74 3.469 4.668 9.183 7.102 17.142 7.305 5.103.203 10.51.406 16.225.609h23.878c1.224-4.464 2.449-8.217 3.673-11.261-20.408.406-33.98.507-40.714.304-6.94-.203-11.837-2.637-14.694-7.304V899h-19.286v11.87h7.04v17.347c-2.448 1.826-4.897 3.754-7.346 5.783l4.592 14zM695 945v-9.758h-29.772v-4.269h26.43v-9.758h-26.43v-4.269h25.519V877h-63.19v39.946h25.519v4.27h-26.43v9.757h26.43v4.27H623V945h72zm-17-53h-13v-5h13v5zm-25 0h-13v-5h13v5zm0 15h-13v-5h13v5zm25 0h-13v-5h13v5z"/>
    </defs>
    <g fill="none" fill-rule="evenodd">
        <g fill-rule="nonzero">
            <g>
                <g transform="translate(-47.000000, -860.000000)">
                    <use fill="#000" filter="url(#12edtk0bta)" xlink:href="#lwfa6knhdb"/>
                    <use fill="#DCF6FF" xlink:href="#lwfa6knhdb"/>
                </g>
            </g>
        </g>
    </g>
</svg>
