<svg width="800" height="672" xmlns="http://www.w3.org/2000/svg">
    <defs>
        <linearGradient x1="77.241%" y1="69.954%" x2="68.286%" y2="28.202%" id="a">
            <stop stop-color="#E2F1FF" offset="0%"/>
            <stop stop-color="#F3F8FF" offset="100%"/>
        </linearGradient>
        <linearGradient x1="17.686%" y1="29.697%" x2="146.963%" y2="157.752%" id="b">
            <stop stop-color="#E7F3FF" offset="0%"/>
            <stop stop-color="#FAFCFF" offset="100%"/>
        </linearGradient>
    </defs>
    <g fill="none" fill-rule="evenodd">
        <path d="M894 221v7h-7v-7h7zm-17 0v7h-7v-7h7zm-17 0v7h-7v-7h7zm-17 0v7h-7v-7h7zm-17 0v7h-7v-7h7zm-17 0v7h-7v-7h7zm-17 0v7h-7v-7h7zm-17 0v7h-7v-7h7zm-17 0v7h-7v-7h7zm-17 0v7h-7v-7h7zm-17 0v7h-7v-7h7zm-17 0v7h-7v-7h7zm-17 0v7h-7v-7h7zm-17 0v7h-7v-7h7zm221-17v7h-7v-7h7zm-17 0v7h-7v-7h7zm-17 0v7h-7v-7h7zm-17 0v7h-7v-7h7zm-17 0v7h-7v-7h7zm-17 0v7h-7v-7h7zm-17 0v7h-7v-7h7zm-17 0v7h-7v-7h7zm-17 0v7h-7v-7h7zm-17 0v7h-7v-7h7zm-17 0v7h-7v-7h7zm-17 0v7h-7v-7h7zm-17 0v7h-7v-7h7zm-17 0v7h-7v-7h7zm221-17v7h-7v-7h7zm-17 0v7h-7v-7h7zm-17 0v7h-7v-7h7zm-17 0v7h-7v-7h7zm-17 0v7h-7v-7h7zm-17 0v7h-7v-7h7zm-17 0v7h-7v-7h7zm-17 0v7h-7v-7h7zm-17 0v7h-7v-7h7zm-17 0v7h-7v-7h7zm-17 0v7h-7v-7h7zm-17 0v7h-7v-7h7zm-17 0v7h-7v-7h7zm-17 0v7h-7v-7h7zm221-17v7h-7v-7h7zm-17 0v7h-7v-7h7zm-17 0v7h-7v-7h7zm-17 0v7h-7v-7h7zm-17 0v7h-7v-7h7zm-17 0v7h-7v-7h7zm-17 0v7h-7v-7h7zm-17 0v7h-7v-7h7zm-17 0v7h-7v-7h7zm-17 0v7h-7v-7h7zm-17 0v7h-7v-7h7zm-17 0v7h-7v-7h7zm-17 0v7h-7v-7h7zm-17 0v7h-7v-7h7zm221-17v7h-7v-7h7zm-17 0v7h-7v-7h7zm-17 0v7h-7v-7h7zm-17 0v7h-7v-7h7zm-17 0v7h-7v-7h7zm-17 0v7h-7v-7h7zm-17 0v7h-7v-7h7zm-17 0v7h-7v-7h7zm-17 0v7h-7v-7h7zm-17 0v7h-7v-7h7zm-17 0v7h-7v-7h7zm-17 0v7h-7v-7h7zm-17 0v7h-7v-7h7zm-17 0v7h-7v-7h7zm221-17v7h-7v-7h7zm-17 0v7h-7v-7h7zm-17 0v7h-7v-7h7zm-17 0v7h-7v-7h7zm-17 0v7h-7v-7h7zm-17 0v7h-7v-7h7zm-17 0v7h-7v-7h7zm-17 0v7h-7v-7h7zm-17 0v7h-7v-7h7zm-17 0v7h-7v-7h7zm-17 0v7h-7v-7h7zm-17 0v7h-7v-7h7zm-17 0v7h-7v-7h7zm-17 0v7h-7v-7h7zm221-17v7h-7v-7h7zm-17 0v7h-7v-7h7zm-17 0v7h-7v-7h7zm-17 0v7h-7v-7h7zm-17 0v7h-7v-7h7zm-17 0v7h-7v-7h7zm-17 0v7h-7v-7h7zm-17 0v7h-7v-7h7zm-17 0v7h-7v-7h7zm-17 0v7h-7v-7h7zm-17 0v7h-7v-7h7zm-17 0v7h-7v-7h7zm-17 0v7h-7v-7h7zm-17 0v7h-7v-7h7zm221-17v7h-7v-7h7zm-17 0v7h-7v-7h7zm-17 0v7h-7v-7h7zm-17 0v7h-7v-7h7zm-17 0v7h-7v-7h7zm-17 0v7h-7v-7h7zm-17 0v7h-7v-7h7zm-17 0v7h-7v-7h7zm-17 0v7h-7v-7h7zm-17 0v7h-7v-7h7zm-17 0v7h-7v-7h7zm-17 0v7h-7v-7h7zm-17 0v7h-7v-7h7zm-17 0v7h-7v-7h7zm221-17v7h-7v-7h7zm-17 0v7h-7v-7h7zm-17 0v7h-7v-7h7zm-17 0v7h-7v-7h7zm-17 0v7h-7v-7h7zm-17 0v7h-7v-7h7zm-17 0v7h-7v-7h7zm-17 0v7h-7v-7h7zm-17 0v7h-7v-7h7zm-17 0v7h-7v-7h7zm-17 0v7h-7v-7h7zm-17 0v7h-7v-7h7zm-17 0v7h-7v-7h7zm-17 0v7h-7v-7h7zm221-17v7h-7v-7h7zm-17 0v7h-7v-7h7zm-17 0v7h-7v-7h7zm-17 0v7h-7v-7h7zm-17 0v7h-7v-7h7zm-17 0v7h-7v-7h7zm-17 0v7h-7v-7h7zm-17 0v7h-7v-7h7zm-17 0v7h-7v-7h7zm-17 0v7h-7v-7h7zm-17 0v7h-7v-7h7zm-17 0v7h-7v-7h7zm-17 0v7h-7v-7h7zm-17 0v7h-7v-7h7zm221-17v7h-7v-7h7zm-17 0v7h-7v-7h7zm-17 0v7h-7v-7h7zm-17 0v7h-7v-7h7zm-17 0v7h-7v-7h7zm-17 0v7h-7v-7h7zm-17 0v7h-7v-7h7zm-17 0v7h-7v-7h7zm-17 0v7h-7v-7h7zm-17 0v7h-7v-7h7zm-17 0v7h-7v-7h7zm-17 0v7h-7v-7h7zm-17 0v7h-7v-7h7zm-17 0v7h-7v-7h7zm221-17v7h-7v-7h7zm-17 0v7h-7v-7h7zm-17 0v7h-7v-7h7zm-17 0v7h-7v-7h7zm-17 0v7h-7v-7h7zm-17 0v7h-7v-7h7zm-17 0v7h-7v-7h7zm-17 0v7h-7v-7h7zm-17 0v7h-7v-7h7zm-17 0v7h-7v-7h7zm-17 0v7h-7v-7h7zm-17 0v7h-7v-7h7zm-17 0v7h-7v-7h7zm-17 0v7h-7v-7h7zm221-17v7h-7v-7h7zm-17 0v7h-7v-7h7zm-17 0v7h-7v-7h7zm-17 0v7h-7v-7h7zm-17 0v7h-7v-7h7zm-17 0v7h-7v-7h7zm-17 0v7h-7v-7h7zm-17 0v7h-7v-7h7zm-17 0v7h-7v-7h7zm-17 0v7h-7v-7h7zm-17 0v7h-7v-7h7zm-17 0v7h-7v-7h7zm-17 0v7h-7v-7h7zm-17 0v7h-7v-7h7zM894 0v7h-7V0h7zm-17 0v7h-7V0h7zm-17 0v7h-7V0h7zm-17 0v7h-7V0h7zm-17 0v7h-7V0h7zm-17 0v7h-7V0h7zm-17 0v7h-7V0h7zm-17 0v7h-7V0h7zm-17 0v7h-7V0h7zm-17 0v7h-7V0h7zm-17 0v7h-7V0h7zm-17 0v7h-7V0h7zm-17 0v7h-7V0h7zm-17 0v7h-7V0h7z" fill="#D8E9FA" opacity=".784"/>
        <path fill="url(#a)" fill-rule="nonzero" d="m334.923 100-45.86 135.795-42.09-134.894H159.98L114.115 233.88l-23.408-62.744H0L68.26 365h90.651l44.11-129.205L247.136 365h91.382l9.848-28.837 34.273-100.368 42.816-125.432L429 100z" transform="translate(-113)"/>
        <path fill="url(#b)" fill-rule="nonzero" d="m656 410 45.91 134.258L745.703 672H913l-10.488-30.571-12.328-29.625h-79.772l-66.05-191.558L740.849 410z" transform="translate(-113)"/>
    </g>
</svg>
